<?xml version="1.0" encoding="UTF-8"?>
<svg height="16px" viewBox="0 0 16 16" width="16px" xmlns="http://www.w3.org/2000/svg">
    <path d="m 0 6.417969 v 2.855469 c 0 0.664062 0.472656 1.234374 1.121094 1.355468 l 3.777344 0.71875 c 0.671874 0.128906 1.351562 -0.183594 1.695312 -0.777344 l 0.835938 -1.449218 c 0.117187 -0.203125 0.335937 -0.328125 0.570312 -0.328125 s 0.453125 0.125 0.570312 0.328125 l 0.835938 1.449218 c 0.34375 0.59375 1.023438 0.90625 1.695312 0.777344 l 3.777344 -0.71875 c 0.648438 -0.121094 1.121094 -0.691406 1.121094 -1.355468 v -2.855469 c 0 -0.65625 -0.480469 -1.210938 -1.132812 -1.304688 c -4.554688 -0.652343 -9.179688 -0.652343 -13.734376 0 c -0.652343 0.09375 -1.132812 0.648438 -1.132812 1.304688 z m 0 0" fill="#241f31"/>
</svg>
