<?xml version="1.0" encoding="UTF-8"?>
<svg height="128px" viewBox="0 0 128 128" width="128px" xmlns="http://www.w3.org/2000/svg" xmlns:xlink="http://www.w3.org/1999/xlink">
    <linearGradient id="a" gradientUnits="userSpaceOnUse">
        <stop offset="0" stop-color="#c0bfbc"/>
        <stop offset="0.5" stop-color="#deddda"/>
        <stop offset="1" stop-color="#c0bfbc"/>
    </linearGradient>
    <linearGradient id="b" gradientTransform="matrix(0.707107 0.707107 -0.707107 0.707107 189.865011 -133.889409)" x1="56" x2="60" xlink:href="#a" y1="212" y2="212"/>
    <linearGradient id="c" gradientTransform="matrix(0.707107 -0.707107 0.707107 0.707107 -143.889385 -51.865018)" x1="56" x2="60" xlink:href="#a" y1="212" y2="212"/>
    <linearGradient id="d" gradientUnits="userSpaceOnUse" x1="8" x2="120.000053" y1="117.294266" y2="117.294266">
        <stop offset="0" stop-color="#c64600"/>
        <stop offset="0.0357143" stop-color="#ffa348"/>
        <stop offset="0.0714285" stop-color="#e66100"/>
        <stop offset="0.928571" stop-color="#e66100"/>
        <stop offset="0.964289" stop-color="#ffa348"/>
        <stop offset="1" stop-color="#c64600"/>
    </linearGradient>
    <linearGradient id="e" gradientUnits="userSpaceOnUse" x1="8" x2="120" y1="92.372971" y2="92.372971">
        <stop offset="0" stop-color="#e01b24"/>
        <stop offset="0.25" stop-color="#ffa348" stop-opacity="0"/>
        <stop offset="0.5" stop-color="#ffbe6f" stop-opacity="0.4"/>
        <stop offset="0.75" stop-color="#ffa348" stop-opacity="0"/>
        <stop offset="1" stop-color="#e01b24"/>
    </linearGradient>
    <linearGradient id="f" gradientUnits="userSpaceOnUse">
        <stop offset="0" stop-color="#deddda"/>
        <stop offset="1" stop-color="#c0bfbc" stop-opacity="0"/>
    </linearGradient>
    <radialGradient id="g" cx="95.0000154" cy="37.0000794" r="10.000002" xlink:href="#f"/>
    <radialGradient id="h" cx="27.0000124" cy="37.0000794" r="10.000002" xlink:href="#f"/>
    <path d="m 96.527344 38.644531 l 2.828125 2.828125 l -33.941407 33.941406 l -2.828124 -2.828124 z m 0 0" fill="url(#b)"/>
    <path d="m 28.644531 41.472656 l 2.828125 -2.828125 l 33.941406 33.941407 l -2.828124 2.828124 z m 0 0" fill="url(#c)"/>
    <path d="m 8 83.292969 v 20 c 0 4.640625 3.300781 8.628906 7.859375 9.492187 l 26.425781 5.015625 c 4.707032 0.894531 9.464844 -1.285156 11.859375 -5.433593 l 5.855469 -10.144532 c 0.824219 -1.429687 2.351562 -2.308594 4 -2.308594 s 3.175781 0.878907 4 2.308594 l 5.855469 10.144532 c 2.394531 4.148437 7.152343 6.328124 11.859375 5.433593 l 26.425781 -5.015625 c 4.558594 -0.863281 7.859375 -4.851562 7.859375 -9.492187 v -20 c 0 -4.589844 -3.375 -8.480469 -7.917969 -9.128907 c -31.894531 -4.558593 -64.269531 -4.558593 -96.164062 0 c -4.542969 0.648438 -7.917969 4.539063 -7.917969 9.128907 z m 0 0" fill="url(#d)"/>
    <path d="m 8 81.292969 v 20 c 0 4.640625 3.300781 8.628906 7.859375 9.492187 l 26.425781 5.015625 c 4.707032 0.894531 9.464844 -1.285156 11.859375 -5.433593 l 5.855469 -10.144532 c 0.824219 -1.429687 2.351562 -2.308594 4 -2.308594 s 3.175781 0.878907 4 2.308594 l 5.855469 10.144532 c 2.394531 4.148437 7.152343 6.328124 11.859375 5.433593 l 26.425781 -5.015625 c 4.558594 -0.863281 7.859375 -4.851562 7.859375 -9.492187 v -20 c 0 -4.589844 -3.375 -8.480469 -7.917969 -9.128907 c -31.894531 -4.558593 -64.269531 -4.558593 -96.164062 0 c -4.542969 0.648438 -7.917969 4.539063 -7.917969 9.128907 z m 0 0" fill="#ff7800"/>
    <path d="m 8 81.292969 v 20 c 0 4.640625 3.300781 8.628906 7.859375 9.492187 l 26.425781 5.015625 c 4.707032 0.894531 9.464844 -1.285156 11.859375 -5.433593 l 5.855469 -10.144532 c 0.824219 -1.429687 2.351562 -2.308594 4 -2.308594 s 3.175781 0.878907 4 2.308594 l 5.855469 10.144532 c 2.394531 4.148437 7.152343 6.328124 11.859375 5.433593 l 26.425781 -5.015625 c 4.558594 -0.863281 7.859375 -4.851562 7.859375 -9.492187 v -20 c 0 -4.589844 -3.375 -8.480469 -7.917969 -9.128907 c -31.894531 -4.558593 -64.269531 -4.558593 -96.164062 0 c -4.542969 0.648438 -7.917969 4.539063 -7.917969 9.128907 z m 0 0" fill="url(#e)"/>
    <path d="m 96.210938 81.878906 l -4.234376 14.90625 l -4.21875 -15.089844 l -6.53125 -0.140624 l 7.546876 22.105468 l 6.40625 -0.710937 l 7.59375 -20.929688 z m 0 0" fill="#f6d32d" fill-opacity="0.8"/>
    <path d="m 45.609375 104.285156 v -22.949218 l -5.84375 0.046874 v 12.851563 l -7.515625 -12.789063 l -5.859375 0.046876 v 20.574218 l 5.859375 0.675782 v -12.316407 l 7.515625 13.183594 z m 0 0" fill="#f6d32d" fill-opacity="0.8"/>
    <path d="m 104 40 c 0 3.3125 -2.6875 6 -6 6 s -6 -2.6875 -6 -6 s 2.6875 -6 6 -6 s 6 2.6875 6 6 z m 0 0" fill="#c0bfbc"/>
    <path d="m 104 40 c 0 3.3125 -2.6875 6 -6 6 s -6 -2.6875 -6 -6 s 2.6875 -6 6 -6 s 6 2.6875 6 6 z m 0 0" fill="url(#g)"/>
    <path d="m 36 40 c 0 3.3125 -2.6875 6 -6 6 s -6 -2.6875 -6 -6 s 2.6875 -6 6 -6 s 6 2.6875 6 6 z m 0 0" fill="#c0bfbc"/>
    <path d="m 36 40 c 0 3.3125 -2.6875 6 -6 6 s -6 -2.6875 -6 -6 s 2.6875 -6 6 -6 s 6 2.6875 6 6 z m 0 0" fill="url(#h)"/>
</svg>
